{"title":"Iron.Man.3.2013.HDSCR.ULTRA.EDiTiON.720p.x264.LiNE.Hive-CM8","uid":8501579,"size":4311044307,"categoryP":"video","categoryS":"hd___movies","magnet":"?xt=urn:btih:bf554a25ed122e7dfc6543a931dcca23ac0452ba&amp;dn=Iron.Man.3.2013.HDSCR.ULTRA.EDiTiON.720p.x264.LiNE.Hive-CM8&amp;tr=udp%3A%2F%2Ftracker.openbittorrent.com%3A80&amp;tr=udp%3A%2F%2Fopen.demonii.com%3A1337&amp;tr=udp%3A%2F%2Ftracker.coppersurfer.tk%3A6969&amp;tr=udp%3A%2F%2Fexodus.desync.com%3A6969","seeders":4,"leechers":2,"uploader":"R0thschild","files":6,"time":1369314189,"description":"              ***********************************************\n\n                PublicHash - Largest Bittorrent Community\n      \n                         &lt;a href=&quot; http://publichash.com/&quot; rel=&quot;nofollow&quot; target=&quot;_NEW&quot;&gt; http://publichash.com/&lt;/a&gt;\n    \n              ***********************************************\n\nThx Hive - CM8 Doing It Right The First Time\n\nIron.Man.3.2013.HDSCR.ULTRA.EDiTiON.720p.x264.LiNE.Hive-CM8\n\nVideo: 1280x520 @bitrate 4000 2pass\nAudio: English AC3 2.0 Stereo (Line)\nSample: Yes, 3 included\n\nSOURCES\nVideo: Chinese 720p HD Source + 2mins from SMY - thx\nAudio: Goldenbear/Unique and Unknown - thx\n\nGeneral\nComplete name: Iron.Man.3.2013.HDSCR.ULTRA.EDiTiON.720p.x264.LiNE.Hive-CM8.mkv\nFormat: Matroska\nFormat version: Version 2\nFile size: 3.98 GiB\nDuration: 2h 10mn\nOverall bit rate mode: Constant\nOverall bit rate: 4 381 Kbps\nEncoded date: UTC 2013-05-23 23:00:50\nWriting application: mkvmerge v5.6.0 ('Kenya Kane') built on May 27 2012 16:44:04\nWriting library: libebml v1.2.3 + libmatroska v1.3.0\n\nVideo\nID: 1\nFormat: AVC\nFormat/Info: Advanced Video Codec\nFormat profile: &lt;a class=&quot;__cf_email__&quot; href=&quot;/cdn-cgi/l/email-protection&quot; data-cfemail=&quot;2860414f4068641d0619&quot;&gt;[email&amp;#160;protected]&lt;/a&gt;&lt;script cf-hash='f9e31' type=&quot;text/javascript&quot;&gt;\n/* &lt;![CDATA[ */!function(){try{var t=&quot;currentScript&quot;in document?document.currentScript:function(){for(var t=document.getElementsByTagName(&quot;script&quot;),e=t.length;e--;)if(t[e].getAttribute(&quot;cf-hash&quot;))return t[e]}();if(t&amp;&amp;t.previousSibling){var e,r,n,i,c=t.previousSibling,a=c.getAttribute(&quot;data-cfemail&quot;);if(a){for(e=&quot;&quot;,r=parseInt(a.substr(0,2),16),n=2;a.length-n;n+=2)i=parseInt(a.substr(n,2),16)^r,e+=String.fromCharCode(i);e=document.createTextNode(e),c.parentNode.replaceChild(e,c)}}}catch(u){}}();/* ]]&gt; */&lt;/script&gt;\nFormat settings, CABAC: No\nFormat settings, ReFrames: 1 frame\nFormat settings, GOP: M=1, N=33\nMuxing mode: Header stripping\nCodec ID: V_MPEG4/ISO/AVC\nDuration: 2h 10mn\nBit rate mode: Constant\nBit rate: 4 000 Kbps\nWidth: 1 280 pixels\nHeight: 520 pixels\nDisplay aspect ratio: 2.462\nFrame rate mode: Constant\nFrame rate: 29.970 fps\nStandard: NTSC\nColor space: YUV\nChroma subsampling: 4:2:0\nBit depth: 8 bits\nScan type: Progressive\nBits/(Pixel*Frame): 0.201\nStream size: 3.55 GiB (89%)\nLanguage: English\nDefault: Yes\nForced: No\nColor primaries: BT.709\nTransfer characteristics: BT.709\nMatrix coefficients: BT.709\n\nAudio\nID: 2\nFormat: AC-3\nFormat/Info: Audio Coding 3\nMode extension: CM (complete main)\nFormat settings, Endianness: Big\nMuxing mode: Header stripping\nCodec ID: A_AC3\nDuration: 2h 10mn\nBit rate mode: Constant\nBit rate: 384 Kbps\nChannel(s): 2 channels\nChannel positions: Front: L R\nSampling rate: 48.0 KHz\nBit depth: 16 bits\nCompression mode: Lossy\nDelay relative to video: -1ms\nStream size: 357 MiB (9%)\nDefault: Yes\nForced: No\nIMDb: http://www.imdb.com/title/tt1300854/ ","torrent":{"xt":"urn:btih:bf554a25ed122e7dfc6543a931dcca23ac0452ba","amp;dn":"Iron.Man.3.2013.HDSCR.ULTRA.EDiTiON.720p.x264.LiNE.Hive-CM8","amp;tr":["udp%3A%2F%2Ftracker.openbittorrent.com%3A80","udp%3A%2F%2Fopen.demonii.com%3A1337","udp%3A%2F%2Ftracker.coppersurfer.tk%3A6969","udp%3A%2F%2Fexodus.desync.com%3A6969"],"infoHash":"bf554a25ed122e7dfc6543a931dcca23ac0452ba","infoHashBuffer":{"type":"Buffer","data":[191,85,74,37,237,18,46,125,252,101,67,169,49,220,202,35,172,4,82,186]},"announce":[],"urlList":[]}}